<mxfile modified="2023-06-19T13:58:13.661Z" host="app.diagrams.net" agent="Mozilla/5.0 (Windows NT 10.0; Win64; x64) AppleWebKit/537.36 (KHTML, like Gecko) Chrome/114.0.0.0 Safari/537.36" etag="uczaG4DKNQw5NWp6reEC" version="21.5.0" type="device">
  <diagram id="Ht1M8jgEwFfnCIfOTk4-" name="Page-1">
    <mxGraphModel dx="1434" dy="788" grid="0" gridSize="10" guides="1" tooltips="1" connect="1" arrows="1" fold="1" page="1" pageScale="1" pageWidth="1169" pageHeight="827" background="#ffffff" math="0" shadow="0">
      <root>
        <mxCell id="0" />
        <mxCell id="1" parent="0" />
        <mxCell id="6uSbmN7gZlpRDPP3WdP6-11" value="" style="shape=partialRectangle;whiteSpace=wrap;html=1;top=1;left=1;fillColor=none;strokeColor=#000000;noLabel=0;movableLabel=0;backgroundOutline=0;collapsible=0;dropTarget=0;container=0;fixDash=0;snapToPoint=0;portConstraintRotation=0;comic=0;enumerate=0;treeMoving=0;pointerEvents=1;treeFolding=0;deletable=1;cloneable=1;rotatable=0;resizeHeight=0;resizeWidth=0;fixedWidth=0;autosize=0;metaEdit=0;expand=1;recursiveResize=1;allowArrows=1;connectable=1;" vertex="1" parent="1">
          <mxGeometry x="140" y="67.5" width="840" height="441" as="geometry" />
        </mxCell>
        <mxCell id="6uSbmN7gZlpRDPP3WdP6-15" value="" style="outlineConnect=0;dashed=0;verticalLabelPosition=bottom;verticalAlign=top;align=center;html=1;shape=mxgraph.aws3.internet_gateway;fillColor=#F58534;gradientColor=none;" vertex="1" parent="1">
          <mxGeometry x="107" y="252" width="69" height="72" as="geometry" />
        </mxCell>
        <mxCell id="6uSbmN7gZlpRDPP3WdP6-16" value="users" style="sketch=0;outlineConnect=0;gradientColor=none;fontColor=#545B64;strokeColor=none;fillColor=#879196;dashed=0;verticalLabelPosition=bottom;verticalAlign=top;align=center;html=1;fontSize=12;fontStyle=0;aspect=fixed;shape=mxgraph.aws4.illustration_users;pointerEvents=1" vertex="1" parent="1">
          <mxGeometry x="29" y="257" width="56" height="56" as="geometry" />
        </mxCell>
        <mxCell id="6uSbmN7gZlpRDPP3WdP6-18" value="" style="endArrow=classic;html=1;rounded=0;strokeColor=#000000;exitX=1;exitY=0.5;exitDx=0;exitDy=0;exitPerimeter=0;entryX=0;entryY=0.5;entryDx=0;entryDy=0;entryPerimeter=0;" edge="1" parent="1" source="6uSbmN7gZlpRDPP3WdP6-15">
          <mxGeometry width="50" height="50" relative="1" as="geometry">
            <mxPoint x="83" y="585" as="sourcePoint" />
            <mxPoint x="223" y="287.94000000000005" as="targetPoint" />
          </mxGeometry>
        </mxCell>
        <mxCell id="6uSbmN7gZlpRDPP3WdP6-19" value="" style="shape=partialRectangle;whiteSpace=wrap;html=1;top=1;left=1;fillColor=none;strokeColor=#000000;noLabel=0;movableLabel=0;backgroundOutline=0;collapsible=0;dropTarget=0;container=0;fixDash=0;snapToPoint=0;portConstraintRotation=0;comic=0;enumerate=0;treeMoving=0;pointerEvents=1;treeFolding=0;deletable=1;cloneable=1;rotatable=0;resizeHeight=0;resizeWidth=0;fixedWidth=0;autosize=0;metaEdit=0;expand=1;recursiveResize=1;allowArrows=1;connectable=1;" vertex="1" parent="1">
          <mxGeometry x="271" y="111.88" width="676" height="352.12" as="geometry" />
        </mxCell>
        <mxCell id="6uSbmN7gZlpRDPP3WdP6-20" value="" style="outlineConnect=0;dashed=0;verticalLabelPosition=bottom;verticalAlign=top;align=center;html=1;shape=mxgraph.aws3.application_load_balancer;fillColor=#F58534;gradientColor=none;" vertex="1" parent="1">
          <mxGeometry x="223" y="251.94" width="69" height="72" as="geometry" />
        </mxCell>
        <mxCell id="6uSbmN7gZlpRDPP3WdP6-22" value="" style="outlineConnect=0;dashed=0;verticalLabelPosition=bottom;verticalAlign=top;align=center;html=1;shape=mxgraph.aws3.cloud_2;fillColor=#F58534;gradientColor=none;" vertex="1" parent="1">
          <mxGeometry x="113.5" y="41" width="58" height="50" as="geometry" />
        </mxCell>
        <mxCell id="6uSbmN7gZlpRDPP3WdP6-23" value="" style="shape=partialRectangle;whiteSpace=wrap;html=1;top=1;left=1;fillColor=none;strokeColor=#FFB366;noLabel=0;movableLabel=0;backgroundOutline=0;collapsible=0;dropTarget=0;container=0;fixDash=0;snapToPoint=0;portConstraintRotation=0;comic=0;enumerate=0;treeMoving=0;pointerEvents=1;treeFolding=0;deletable=1;cloneable=1;rotatable=0;resizeHeight=0;resizeWidth=0;fixedWidth=0;autosize=0;metaEdit=0;expand=1;recursiveResize=1;allowArrows=1;connectable=1;strokeWidth=3;dashed=1;perimeter=rectanglePerimeter;" vertex="1" parent="1">
          <mxGeometry x="317" y="129.88" width="592" height="155.12" as="geometry" />
        </mxCell>
        <mxCell id="6uSbmN7gZlpRDPP3WdP6-24" value="" style="outlineConnect=0;dashed=0;verticalLabelPosition=bottom;verticalAlign=top;align=center;html=1;shape=mxgraph.aws3.virtual_private_cloud;fillColor=#F58534;gradientColor=none;" vertex="1" parent="1">
          <mxGeometry x="242" y="83" width="60" height="40" as="geometry" />
        </mxCell>
        <mxCell id="6uSbmN7gZlpRDPP3WdP6-25" value="" style="shape=partialRectangle;whiteSpace=wrap;html=1;top=1;left=1;fillColor=none;strokeColor=#FFB366;noLabel=0;movableLabel=0;backgroundOutline=0;collapsible=0;dropTarget=0;container=0;fixDash=0;snapToPoint=0;portConstraintRotation=0;comic=0;enumerate=0;treeMoving=0;pointerEvents=1;treeFolding=0;deletable=1;cloneable=1;rotatable=0;resizeHeight=0;resizeWidth=0;fixedWidth=0;autosize=0;metaEdit=0;expand=1;recursiveResize=1;allowArrows=1;connectable=1;strokeWidth=3;dashed=1;" vertex="1" parent="1">
          <mxGeometry x="317" y="296" width="592" height="155.12" as="geometry" />
        </mxCell>
        <mxCell id="6uSbmN7gZlpRDPP3WdP6-26" value="" style="shape=partialRectangle;whiteSpace=wrap;html=1;top=1;left=1;fillColor=none;strokeColor=#FF6666;noLabel=0;movableLabel=0;backgroundOutline=0;collapsible=0;dropTarget=0;container=0;fixDash=0;snapToPoint=0;portConstraintRotation=0;comic=0;enumerate=0;treeMoving=0;pointerEvents=1;treeFolding=0;deletable=1;cloneable=1;rotatable=0;resizeHeight=0;resizeWidth=0;fixedWidth=0;autosize=0;metaEdit=0;expand=1;recursiveResize=1;allowArrows=1;connectable=1;strokeWidth=2;dashed=1;" vertex="1" parent="1">
          <mxGeometry x="678" y="148.94" width="157" height="288" as="geometry" />
        </mxCell>
        <mxCell id="6uSbmN7gZlpRDPP3WdP6-27" value="" style="shape=partialRectangle;whiteSpace=wrap;html=1;top=1;left=1;fillColor=none;strokeColor=#000000;noLabel=0;movableLabel=0;backgroundOutline=0;collapsible=0;dropTarget=0;container=0;fixDash=0;snapToPoint=0;portConstraintRotation=0;comic=0;enumerate=0;treeMoving=0;pointerEvents=1;treeFolding=0;deletable=1;cloneable=1;rotatable=0;resizeHeight=0;resizeWidth=0;fixedWidth=0;autosize=0;metaEdit=0;expand=1;recursiveResize=1;allowArrows=1;connectable=1;" vertex="1" parent="1">
          <mxGeometry x="371" y="148.94" width="178" height="117" as="geometry" />
        </mxCell>
        <mxCell id="6uSbmN7gZlpRDPP3WdP6-28" value="" style="shape=partialRectangle;whiteSpace=wrap;html=1;top=1;left=1;fillColor=none;strokeColor=#000000;noLabel=0;movableLabel=0;backgroundOutline=0;collapsible=0;dropTarget=0;container=0;fixDash=0;snapToPoint=0;portConstraintRotation=0;comic=0;enumerate=0;treeMoving=0;pointerEvents=1;treeFolding=0;deletable=1;cloneable=1;rotatable=0;resizeHeight=0;resizeWidth=0;fixedWidth=0;autosize=0;metaEdit=0;expand=1;recursiveResize=1;allowArrows=1;connectable=1;" vertex="1" parent="1">
          <mxGeometry x="371" y="315.06" width="178" height="117" as="geometry" />
        </mxCell>
        <mxCell id="6uSbmN7gZlpRDPP3WdP6-29" value="" style="shape=partialRectangle;whiteSpace=wrap;html=1;top=1;left=1;fillColor=none;strokeColor=#000000;noLabel=0;movableLabel=0;backgroundOutline=0;collapsible=0;dropTarget=0;container=0;fixDash=0;snapToPoint=0;portConstraintRotation=0;comic=0;enumerate=0;treeMoving=0;pointerEvents=1;treeFolding=0;deletable=1;cloneable=1;rotatable=0;resizeHeight=0;resizeWidth=0;fixedWidth=0;autosize=0;metaEdit=0;expand=1;recursiveResize=1;allowArrows=1;connectable=1;" vertex="1" parent="1">
          <mxGeometry x="628" y="140.44" width="243" height="134" as="geometry" />
        </mxCell>
        <mxCell id="6uSbmN7gZlpRDPP3WdP6-30" value="" style="shape=partialRectangle;whiteSpace=wrap;html=1;top=1;left=1;fillColor=none;strokeColor=#000000;noLabel=0;movableLabel=0;backgroundOutline=0;collapsible=0;dropTarget=0;container=0;fixDash=0;snapToPoint=0;portConstraintRotation=0;comic=0;enumerate=0;treeMoving=0;pointerEvents=1;treeFolding=0;deletable=1;cloneable=1;rotatable=0;resizeHeight=0;resizeWidth=0;fixedWidth=0;autosize=0;metaEdit=0;expand=1;recursiveResize=1;allowArrows=1;connectable=1;" vertex="1" parent="1">
          <mxGeometry x="628" y="306.56" width="243" height="134" as="geometry" />
        </mxCell>
        <mxCell id="6uSbmN7gZlpRDPP3WdP6-31" value="" style="outlineConnect=0;dashed=0;verticalLabelPosition=bottom;verticalAlign=top;align=center;html=1;shape=mxgraph.aws3.vpc_nat_gateway;fillColor=#F58534;gradientColor=none;" vertex="1" parent="1">
          <mxGeometry x="458" y="171.44" width="69" height="72" as="geometry" />
        </mxCell>
        <mxCell id="6uSbmN7gZlpRDPP3WdP6-32" value="" style="outlineConnect=0;dashed=0;verticalLabelPosition=bottom;verticalAlign=top;align=center;html=1;shape=mxgraph.aws3.vpc_nat_gateway;fillColor=#F58534;gradientColor=none;" vertex="1" parent="1">
          <mxGeometry x="458" y="337.56" width="69" height="72" as="geometry" />
        </mxCell>
        <mxCell id="6uSbmN7gZlpRDPP3WdP6-33" value="" style="sketch=0;outlineConnect=0;fontColor=#232F3E;gradientColor=none;fillColor=#D45B07;strokeColor=none;dashed=0;verticalLabelPosition=bottom;verticalAlign=top;align=center;html=1;fontSize=12;fontStyle=0;aspect=fixed;pointerEvents=1;shape=mxgraph.aws4.elastic_ip_address;" vertex="1" parent="1">
          <mxGeometry x="376" y="197.44" width="48" height="20" as="geometry" />
        </mxCell>
        <mxCell id="6uSbmN7gZlpRDPP3WdP6-35" value="" style="sketch=0;outlineConnect=0;fontColor=#232F3E;gradientColor=none;fillColor=#D45B07;strokeColor=none;dashed=0;verticalLabelPosition=bottom;verticalAlign=top;align=center;html=1;fontSize=12;fontStyle=0;aspect=fixed;pointerEvents=1;shape=mxgraph.aws4.elastic_ip_address;" vertex="1" parent="1">
          <mxGeometry x="376" y="363.56" width="48" height="20" as="geometry" />
        </mxCell>
        <mxCell id="6uSbmN7gZlpRDPP3WdP6-36" value="" style="outlineConnect=0;dashed=0;verticalLabelPosition=bottom;verticalAlign=top;align=center;html=1;shape=mxgraph.aws3.auto_scaling;fillColor=#F58534;gradientColor=none;" vertex="1" parent="1">
          <mxGeometry x="769" y="153" width="50" height="39" as="geometry" />
        </mxCell>
        <mxCell id="6uSbmN7gZlpRDPP3WdP6-37" value="" style="outlineConnect=0;dashed=0;verticalLabelPosition=bottom;verticalAlign=top;align=center;html=1;shape=mxgraph.aws3.ec2;fillColor=#F58534;gradientColor=none;" vertex="1" parent="1">
          <mxGeometry x="694.5" y="190.44" width="36" height="42" as="geometry" />
        </mxCell>
        <mxCell id="6uSbmN7gZlpRDPP3WdP6-38" value="" style="outlineConnect=0;dashed=0;verticalLabelPosition=bottom;verticalAlign=top;align=center;html=1;shape=mxgraph.aws3.ec2;fillColor=#F58534;gradientColor=none;" vertex="1" parent="1">
          <mxGeometry x="724.5" y="200.44" width="36" height="42" as="geometry" />
        </mxCell>
        <mxCell id="6uSbmN7gZlpRDPP3WdP6-39" value="" style="outlineConnect=0;dashed=0;verticalLabelPosition=bottom;verticalAlign=top;align=center;html=1;shape=mxgraph.aws3.ec2;fillColor=#F58534;gradientColor=none;" vertex="1" parent="1">
          <mxGeometry x="706" y="355" width="36" height="42" as="geometry" />
        </mxCell>
        <mxCell id="6uSbmN7gZlpRDPP3WdP6-40" value="" style="outlineConnect=0;dashed=0;verticalLabelPosition=bottom;verticalAlign=top;align=center;html=1;shape=mxgraph.aws3.ec2;fillColor=#F58534;gradientColor=none;" vertex="1" parent="1">
          <mxGeometry x="736" y="365" width="36" height="42" as="geometry" />
        </mxCell>
        <mxCell id="6uSbmN7gZlpRDPP3WdP6-41" value="" style="shape=partialRectangle;whiteSpace=wrap;html=1;top=1;left=1;fillColor=none;strokeColor=#FF3333;noLabel=0;movableLabel=0;backgroundOutline=0;collapsible=0;dropTarget=0;container=0;fixDash=0;snapToPoint=0;portConstraintRotation=0;comic=0;enumerate=0;treeMoving=0;pointerEvents=1;treeFolding=0;deletable=1;cloneable=1;rotatable=0;resizeHeight=0;resizeWidth=0;fixedWidth=0;autosize=0;metaEdit=0;expand=1;recursiveResize=1;allowArrows=1;connectable=1;strokeWidth=3;dashed=1;" vertex="1" parent="1">
          <mxGeometry x="694" y="325.12" width="98" height="96" as="geometry" />
        </mxCell>
        <mxCell id="6uSbmN7gZlpRDPP3WdP6-42" value="" style="html=1;verticalLabelPosition=bottom;align=center;labelBackgroundColor=#ffffff;verticalAlign=top;strokeWidth=2;strokeColor=#BD7000;shadow=0;dashed=0;shape=mxgraph.ios7.icons.locked;fillColor=#f0a30a;fontColor=#000000;" vertex="1" parent="1">
          <mxGeometry x="388" y="129.88" width="24" height="30" as="geometry" />
        </mxCell>
        <mxCell id="6uSbmN7gZlpRDPP3WdP6-43" value="" style="html=1;verticalLabelPosition=bottom;align=center;labelBackgroundColor=#ffffff;verticalAlign=top;strokeWidth=2;strokeColor=#BD7000;shadow=0;dashed=0;shape=mxgraph.ios7.icons.locked;fillColor=#f0a30a;fontColor=#000000;" vertex="1" parent="1">
          <mxGeometry x="382" y="296" width="24" height="30" as="geometry" />
        </mxCell>
        <mxCell id="6uSbmN7gZlpRDPP3WdP6-44" value="" style="html=1;verticalLabelPosition=bottom;align=center;labelBackgroundColor=#ffffff;verticalAlign=top;strokeWidth=2;strokeColor=#BD7000;shadow=0;dashed=0;shape=mxgraph.ios7.icons.locked;fillColor=#f0a30a;fontColor=#000000;" vertex="1" parent="1">
          <mxGeometry x="619" y="141.44" width="24" height="30" as="geometry" />
        </mxCell>
        <mxCell id="6uSbmN7gZlpRDPP3WdP6-45" value="" style="html=1;verticalLabelPosition=bottom;align=center;labelBackgroundColor=#ffffff;verticalAlign=top;strokeWidth=2;strokeColor=#BD7000;shadow=0;dashed=0;shape=mxgraph.ios7.icons.locked;fillColor=#f0a30a;fontColor=#000000;" vertex="1" parent="1">
          <mxGeometry x="613" y="300" width="24" height="30" as="geometry" />
        </mxCell>
        <mxCell id="6uSbmN7gZlpRDPP3WdP6-46" value="" style="outlineConnect=0;dashed=0;verticalLabelPosition=bottom;verticalAlign=top;align=center;html=1;shape=mxgraph.aws3.route_table;fillColor=#F58536;gradientColor=none;" vertex="1" parent="1">
          <mxGeometry x="550" y="265.94" width="63" height="49" as="geometry" />
        </mxCell>
        <mxCell id="6uSbmN7gZlpRDPP3WdP6-47" value="&lt;font color=&quot;#000000&quot;&gt;Internet gateway&lt;/font&gt;" style="text;html=1;strokeColor=none;fillColor=none;align=center;verticalAlign=middle;whiteSpace=wrap;rounded=0;" vertex="1" parent="1">
          <mxGeometry x="111.5" y="326" width="60" height="30" as="geometry" />
        </mxCell>
        <mxCell id="6uSbmN7gZlpRDPP3WdP6-49" value="&lt;font color=&quot;#000000&quot;&gt;Application Load Balencer&lt;/font&gt;" style="text;html=1;strokeColor=none;fillColor=none;align=center;verticalAlign=middle;whiteSpace=wrap;rounded=0;" vertex="1" parent="1">
          <mxGeometry x="211" y="330" width="60" height="30" as="geometry" />
        </mxCell>
        <mxCell id="6uSbmN7gZlpRDPP3WdP6-50" value="" style="endArrow=classic;html=1;rounded=0;strokeColor=#000000;exitX=0.5;exitY=0;exitDx=0;exitDy=0;exitPerimeter=0;" edge="1" parent="1" source="6uSbmN7gZlpRDPP3WdP6-20" target="6uSbmN7gZlpRDPP3WdP6-33">
          <mxGeometry width="50" height="50" relative="1" as="geometry">
            <mxPoint x="186" y="298" as="sourcePoint" />
            <mxPoint x="233" y="297.94000000000005" as="targetPoint" />
            <Array as="points">
              <mxPoint x="258" y="207" />
            </Array>
          </mxGeometry>
        </mxCell>
        <mxCell id="6uSbmN7gZlpRDPP3WdP6-51" value="" style="endArrow=classic;html=1;rounded=0;strokeColor=#000000;exitX=0.5;exitY=1;exitDx=0;exitDy=0;exitPerimeter=0;" edge="1" parent="1" source="6uSbmN7gZlpRDPP3WdP6-20" target="6uSbmN7gZlpRDPP3WdP6-35">
          <mxGeometry width="50" height="50" relative="1" as="geometry">
            <mxPoint x="268" y="262" as="sourcePoint" />
            <mxPoint x="386" y="217" as="targetPoint" />
            <Array as="points">
              <mxPoint x="258" y="374" />
            </Array>
          </mxGeometry>
        </mxCell>
        <mxCell id="6uSbmN7gZlpRDPP3WdP6-52" value="&lt;font color=&quot;#000000&quot;&gt;Elastic IP Address&lt;/font&gt;" style="text;html=1;strokeColor=none;fillColor=none;align=center;verticalAlign=middle;whiteSpace=wrap;rounded=0;" vertex="1" parent="1">
          <mxGeometry x="371" y="222" width="60" height="30" as="geometry" />
        </mxCell>
        <mxCell id="6uSbmN7gZlpRDPP3WdP6-53" value="&lt;font color=&quot;#000000&quot;&gt;Elastic IP Address&lt;/font&gt;" style="text;html=1;strokeColor=none;fillColor=none;align=center;verticalAlign=middle;whiteSpace=wrap;rounded=0;" vertex="1" parent="1">
          <mxGeometry x="370" y="383.56" width="60" height="30" as="geometry" />
        </mxCell>
        <mxCell id="6uSbmN7gZlpRDPP3WdP6-54" value="" style="endArrow=classic;html=1;rounded=0;strokeColor=#000000;entryX=0;entryY=0.5;entryDx=0;entryDy=0;entryPerimeter=0;" edge="1" parent="1" source="6uSbmN7gZlpRDPP3WdP6-33" target="6uSbmN7gZlpRDPP3WdP6-31">
          <mxGeometry width="50" height="50" relative="1" as="geometry">
            <mxPoint x="186" y="298" as="sourcePoint" />
            <mxPoint x="233" y="297.94000000000005" as="targetPoint" />
          </mxGeometry>
        </mxCell>
        <mxCell id="6uSbmN7gZlpRDPP3WdP6-55" value="" style="endArrow=classic;html=1;rounded=0;strokeColor=#000000;entryX=0;entryY=0.5;entryDx=0;entryDy=0;entryPerimeter=0;" edge="1" parent="1" source="6uSbmN7gZlpRDPP3WdP6-35" target="6uSbmN7gZlpRDPP3WdP6-32">
          <mxGeometry width="50" height="50" relative="1" as="geometry">
            <mxPoint x="196" y="308" as="sourcePoint" />
            <mxPoint x="243" y="307.94000000000005" as="targetPoint" />
          </mxGeometry>
        </mxCell>
        <mxCell id="6uSbmN7gZlpRDPP3WdP6-57" value="&lt;font color=&quot;#000000&quot;&gt;AWS Cloud&lt;/font&gt;" style="text;html=1;strokeColor=none;fillColor=none;align=center;verticalAlign=middle;whiteSpace=wrap;rounded=0;" vertex="1" parent="1">
          <mxGeometry x="513" y="472" width="79" height="30" as="geometry" />
        </mxCell>
        <mxCell id="6uSbmN7gZlpRDPP3WdP6-58" value="&lt;font color=&quot;#000000&quot;&gt;Available Zone&lt;/font&gt;" style="text;html=1;strokeColor=none;fillColor=none;align=center;verticalAlign=middle;whiteSpace=wrap;rounded=0;" vertex="1" parent="1">
          <mxGeometry x="536" y="421.12" width="97" height="30" as="geometry" />
        </mxCell>
        <mxCell id="6uSbmN7gZlpRDPP3WdP6-59" value="&lt;font color=&quot;#000000&quot;&gt;Available Zone&lt;/font&gt;" style="text;html=1;strokeColor=none;fillColor=none;align=center;verticalAlign=middle;whiteSpace=wrap;rounded=0;" vertex="1" parent="1">
          <mxGeometry x="536" y="135" width="97" height="30" as="geometry" />
        </mxCell>
        <mxCell id="6uSbmN7gZlpRDPP3WdP6-60" value="&lt;font color=&quot;#000000&quot;&gt;Vitual private cloud&lt;/font&gt;" style="text;html=1;strokeColor=none;fillColor=none;align=center;verticalAlign=middle;whiteSpace=wrap;rounded=0;" vertex="1" parent="1">
          <mxGeometry x="441" y="434" width="109" height="30" as="geometry" />
        </mxCell>
        <mxCell id="6uSbmN7gZlpRDPP3WdP6-61" value="&lt;font color=&quot;#000000&quot;&gt;Public Subnet 2&lt;/font&gt;" style="text;html=1;strokeColor=none;fillColor=none;align=center;verticalAlign=middle;whiteSpace=wrap;rounded=0;" vertex="1" parent="1">
          <mxGeometry x="406" y="307.56" width="90" height="30" as="geometry" />
        </mxCell>
        <mxCell id="6uSbmN7gZlpRDPP3WdP6-62" value="&lt;font color=&quot;#000000&quot;&gt;Public Subnet 1&lt;/font&gt;" style="text;html=1;strokeColor=none;fillColor=none;align=center;verticalAlign=middle;whiteSpace=wrap;rounded=0;" vertex="1" parent="1">
          <mxGeometry x="412" y="141.44" width="90" height="30" as="geometry" />
        </mxCell>
        <mxCell id="6uSbmN7gZlpRDPP3WdP6-63" value="&lt;font color=&quot;#000000&quot;&gt;VPC NAT Gateway&lt;/font&gt;" style="text;html=1;strokeColor=none;fillColor=none;align=center;verticalAlign=middle;whiteSpace=wrap;rounded=0;" vertex="1" parent="1">
          <mxGeometry x="438" y="240" width="109" height="30" as="geometry" />
        </mxCell>
        <mxCell id="6uSbmN7gZlpRDPP3WdP6-64" value="&lt;font color=&quot;#000000&quot;&gt;VPC NAT Gateway&lt;/font&gt;" style="text;html=1;strokeColor=none;fillColor=none;align=center;verticalAlign=middle;whiteSpace=wrap;rounded=0;" vertex="1" parent="1">
          <mxGeometry x="438" y="404" width="109" height="30" as="geometry" />
        </mxCell>
        <mxCell id="6uSbmN7gZlpRDPP3WdP6-65" value="&lt;font color=&quot;#000000&quot;&gt;Private Subnet 2&lt;/font&gt;" style="text;html=1;strokeColor=none;fillColor=none;align=center;verticalAlign=middle;whiteSpace=wrap;rounded=0;" vertex="1" parent="1">
          <mxGeometry x="801" y="416" width="95" height="30" as="geometry" />
        </mxCell>
        <mxCell id="6uSbmN7gZlpRDPP3WdP6-66" value="&lt;font color=&quot;#000000&quot;&gt;Private Subnet 2&lt;/font&gt;" style="text;html=1;strokeColor=none;fillColor=none;align=center;verticalAlign=middle;whiteSpace=wrap;rounded=0;" vertex="1" parent="1">
          <mxGeometry x="794" y="249" width="95" height="30" as="geometry" />
        </mxCell>
        <mxCell id="6uSbmN7gZlpRDPP3WdP6-67" value="&lt;font color=&quot;#ff9933&quot;&gt;Auto Scailing&lt;/font&gt;" style="text;html=1;strokeColor=none;fillColor=none;align=center;verticalAlign=middle;whiteSpace=wrap;rounded=0;" vertex="1" parent="1">
          <mxGeometry x="757" y="190.44" width="78" height="27" as="geometry" />
        </mxCell>
        <mxCell id="6uSbmN7gZlpRDPP3WdP6-68" value="&lt;font color=&quot;#000000&quot;&gt;Amazon EC2&lt;/font&gt;" style="text;html=1;strokeColor=none;fillColor=none;align=center;verticalAlign=middle;whiteSpace=wrap;rounded=0;" vertex="1" parent="1">
          <mxGeometry x="677.5" y="235.44" width="49" height="30" as="geometry" />
        </mxCell>
        <mxCell id="6uSbmN7gZlpRDPP3WdP6-69" value="&lt;font color=&quot;#000000&quot;&gt;Amazon EC2&lt;/font&gt;" style="text;html=1;strokeColor=none;fillColor=none;align=center;verticalAlign=middle;whiteSpace=wrap;rounded=0;" vertex="1" parent="1">
          <mxGeometry x="721.5" y="239.44" width="49" height="30" as="geometry" />
        </mxCell>
        <mxCell id="6uSbmN7gZlpRDPP3WdP6-70" value="&lt;font color=&quot;#000000&quot;&gt;Amazon EC2&lt;/font&gt;" style="text;html=1;strokeColor=none;fillColor=none;align=center;verticalAlign=middle;whiteSpace=wrap;rounded=0;" vertex="1" parent="1">
          <mxGeometry x="685" y="397" width="49" height="30" as="geometry" />
        </mxCell>
        <mxCell id="6uSbmN7gZlpRDPP3WdP6-71" value="&lt;font color=&quot;#000000&quot;&gt;Amazon EC2&lt;/font&gt;" style="text;html=1;strokeColor=none;fillColor=none;align=center;verticalAlign=middle;whiteSpace=wrap;rounded=0;" vertex="1" parent="1">
          <mxGeometry x="732" y="404" width="49" height="30" as="geometry" />
        </mxCell>
        <mxCell id="6uSbmN7gZlpRDPP3WdP6-72" value="&lt;font color=&quot;#000000&quot;&gt;Security group&lt;/font&gt;" style="text;html=1;strokeColor=none;fillColor=none;align=center;verticalAlign=middle;whiteSpace=wrap;rounded=0;" vertex="1" parent="1">
          <mxGeometry x="701" y="324" width="95" height="30" as="geometry" />
        </mxCell>
        <mxCell id="6uSbmN7gZlpRDPP3WdP6-73" value="" style="outlineConnect=0;dashed=0;verticalLabelPosition=bottom;verticalAlign=top;align=center;html=1;shape=mxgraph.aws3.bucket;fillColor=#E05243;gradientColor=none;" vertex="1" parent="1">
          <mxGeometry x="1010" y="266" width="60" height="61.5" as="geometry" />
        </mxCell>
        <mxCell id="6uSbmN7gZlpRDPP3WdP6-74" value="&lt;font color=&quot;#000000&quot;&gt;Bucket&lt;/font&gt;" style="text;html=1;strokeColor=none;fillColor=none;align=center;verticalAlign=middle;whiteSpace=wrap;rounded=0;" vertex="1" parent="1">
          <mxGeometry x="988" y="333.56" width="95" height="30" as="geometry" />
        </mxCell>
        <mxCell id="6uSbmN7gZlpRDPP3WdP6-75" value="&lt;font color=&quot;#000000&quot;&gt;Route table&lt;/font&gt;" style="text;html=1;strokeColor=none;fillColor=none;align=center;verticalAlign=middle;whiteSpace=wrap;rounded=0;" vertex="1" parent="1">
          <mxGeometry x="560" y="315.06" width="49" height="30" as="geometry" />
        </mxCell>
        <mxCell id="6uSbmN7gZlpRDPP3WdP6-76" value="" style="endArrow=classic;html=1;rounded=0;strokeColor=#000000;exitX=1;exitY=0.5;exitDx=0;exitDy=0;exitPerimeter=0;" edge="1" parent="1" source="6uSbmN7gZlpRDPP3WdP6-31" target="6uSbmN7gZlpRDPP3WdP6-37">
          <mxGeometry width="50" height="50" relative="1" as="geometry">
            <mxPoint x="186" y="298" as="sourcePoint" />
            <mxPoint x="233" y="297.94000000000005" as="targetPoint" />
          </mxGeometry>
        </mxCell>
        <mxCell id="6uSbmN7gZlpRDPP3WdP6-77" value="" style="endArrow=classic;html=1;rounded=0;strokeColor=#000000;exitX=1;exitY=0.5;exitDx=0;exitDy=0;exitPerimeter=0;" edge="1" parent="1" source="6uSbmN7gZlpRDPP3WdP6-32" target="6uSbmN7gZlpRDPP3WdP6-39">
          <mxGeometry width="50" height="50" relative="1" as="geometry">
            <mxPoint x="537" y="217" as="sourcePoint" />
            <mxPoint x="711" y="569" as="targetPoint" />
          </mxGeometry>
        </mxCell>
      </root>
    </mxGraphModel>
  </diagram>
</mxfile>
